<?xml version="1.0" encoding="UTF-8"?>
<svg version="1.1" xmlns="http://www.w3.org/2000/svg" width="512" height="512">
<path d="M0 0 C0.90045044 -0.00705963 1.80090088 -0.01411926 2.7286377 -0.02139282 C40.56271231 -0.2507174 40.56271231 -0.2507174 57.20703125 3.203125 C58.69759033 3.50911621 58.69759033 3.50911621 60.21826172 3.82128906 C116.92522511 15.81380371 171.93488599 46.2140709 207.20703125 93.203125 C207.94300537 94.18104004 207.94300537 94.18104004 208.69384766 95.17871094 C216.17006772 105.16645615 223.11651041 115.31319857 229.20703125 126.203125 C229.60486816 126.90453613 230.00270508 127.60594727 230.41259766 128.32861328 C248.66086947 160.73122155 260.21390279 198.63338691 260.41015625 235.99609375 C260.41721588 236.89654419 260.42427551 237.79699463 260.43154907 238.72473145 C260.66087365 276.55880606 260.66087365 276.55880606 257.20703125 293.203125 C256.90104004 294.69368408 256.90104004 294.69368408 256.58886719 296.21435547 C242.51250897 362.77483535 204.09457829 420.03311569 147.23681641 457.50146484 C142.97655694 460.21784308 138.61596235 462.73729689 134.20703125 465.203125 C133.50562012 465.60096191 132.80420898 465.99879883 132.08154297 466.40869141 C99.6789347 484.65696322 61.77676934 496.20999654 24.4140625 496.40625 C23.06338684 496.41683945 23.06338684 496.41683945 21.6854248 496.42764282 C-16.14864981 496.6569674 -16.14864981 496.6569674 -32.79296875 493.203125 C-34.28352783 492.89713379 -34.28352783 492.89713379 -35.80419922 492.58496094 C-102.29810922 478.52268106 -159.75561962 440.10251905 -197.10742188 383.20068359 C-199.80859884 378.94578085 -202.3224062 374.59485547 -204.79296875 370.203125 C-205.15310059 369.57712402 -205.51323242 368.95112305 -205.88427734 368.30615234 C-224.38936501 335.98545493 -235.69710889 297.67901619 -236.03125 260.33203125 C-236.04104385 259.42023102 -236.05083771 258.50843079 -236.06092834 257.56900024 C-236.23260511 237.44104818 -236.06932869 217.96420382 -231.79296875 198.203125 C-231.57866211 197.18605469 -231.36435547 196.16898438 -231.14355469 195.12109375 C-222.96279434 157.25381879 -206.04522667 122.38317423 -181.79296875 92.203125 C-181.32068848 91.61515137 -180.8484082 91.02717773 -180.36181641 90.42138672 C-169.28155041 76.78092213 -156.86582205 63.76685597 -142.79296875 53.203125 C-142.14102539 52.71247559 -141.48908203 52.22182617 -140.81738281 51.71630859 C-130.82707934 44.23817357 -120.66915508 37.32151018 -109.79296875 31.203125 C-109.16696777 30.84299316 -108.5409668 30.48286133 -107.89599609 30.11181641 C-75.65552438 11.65266164 -37.27934428 0.19581559 0 0 Z " fill="#2494FF" transform="translate(243.79296875,7.796875)"/>
<path d="M0 0 C5.66061055 6.68981247 5.29258914 13.85985138 5.2746582 22.1965332 C5.2823246 24.03421768 5.2823246 24.03421768 5.29014587 25.9090271 C5.30164265 29.25842469 5.30411876 32.60757433 5.30158257 35.95697427 C5.30050987 38.75988642 5.30540406 41.56277597 5.310188 44.36568326 C5.32127047 50.98330812 5.32172819 57.60087622 5.31567383 64.21850586 C5.30963917 71.02816304 5.3219349 77.83761333 5.3432439 84.64723521 C5.36090477 90.50818355 5.36685407 96.36906631 5.36360615 102.23004025 C5.36179973 105.72406371 5.36436462 109.21793968 5.37832069 112.71193886 C5.39332086 116.61313499 5.38388975 120.51407128 5.37231445 124.4152832 C5.37995819 125.56104324 5.38760193 126.70680328 5.39547729 127.88728333 C5.3275785 138.26717114 3.17321197 146.30319592 -4 154 C-10.58688049 159.21461372 -16.6608988 160.29864728 -24.79196167 160.26069641 C-25.6653239 160.26452196 -26.53868613 160.26834751 -27.43851388 160.27228898 C-30.35864768 160.2825898 -33.27858379 160.27863236 -36.19873047 160.2746582 C-38.29498476 160.2790063 -40.39123746 160.28418978 -42.48748779 160.29014587 C-48.17758873 160.30353688 -53.86762325 160.3041144 -59.55773687 160.30158257 C-64.30923692 160.30051289 -69.06072353 160.3053962 -73.81222069 160.310188 C-85.02277324 160.32128364 -96.23329228 160.32172032 -107.44384766 160.31567383 C-119.00569097 160.3096337 -130.5674126 160.32194596 -142.12923515 160.3432439 C-152.05891854 160.36086215 -161.9885632 160.36686088 -171.91826165 160.36360615 C-177.84741596 160.36179345 -183.77648348 160.36442831 -189.70562363 160.37832069 C-195.28214323 160.3908979 -200.85847323 160.3889558 -206.43498993 160.37590981 C-208.47958312 160.37354422 -210.52418965 160.37627805 -212.56876755 160.38453293 C-215.3640882 160.39500352 -218.158773 160.38689707 -220.95407104 160.3742218 C-221.75933853 160.38159609 -222.56460602 160.38897037 -223.39427555 160.39656812 C-231.15321559 160.32276979 -237.61421029 158.11273266 -243.39453125 152.80859375 C-248.95294601 146.54692457 -251.11375347 139.89914889 -251.14044189 131.63114929 C-251.14615204 130.56723969 -251.15186218 129.50333008 -251.15774536 128.40718079 C-251.15886322 127.25018173 -251.15998108 126.09318268 -251.16113281 124.90112305 C-251.16858017 123.06124817 -251.16858017 123.06124817 -251.17617798 121.1842041 C-251.18826313 117.82661618 -251.19573848 114.46909035 -251.20018864 111.1114881 C-251.20312602 109.01099174 -251.20723205 106.91050074 -251.21169281 104.8100071 C-251.22535601 98.22978101 -251.23502864 91.6495673 -251.2388947 85.06932801 C-251.24337388 77.48856174 -251.26092008 69.90797591 -251.2898953 62.32726449 C-251.31154948 56.45701981 -251.32160096 50.58682576 -251.32293582 44.71654159 C-251.3239811 41.21525579 -251.32982964 37.71413989 -251.34775543 34.21289635 C-251.36737924 30.30422586 -251.36293226 26.39577901 -251.35644531 22.48706055 C-251.3656601 21.33613419 -251.37487488 20.18520782 -251.3843689 18.99940491 C-251.35142991 12.65683351 -250.89339476 7.70271744 -248 2 C-247.01 1.67 -246.02 1.34 -245 1 C-242.75030159 2.482407 -240.75472025 3.97802433 -238.6875 5.6875 C-237.7603418 6.43483398 -237.7603418 6.43483398 -236.81445312 7.19726562 C-231.87637796 11.20476128 -227.05544341 15.34841986 -222.25268555 19.51635742 C-218.25891782 22.96827673 -214.1729988 26.26778887 -210 29.5 C-204.60247571 33.68067172 -199.4044499 38.04390399 -194.25 42.51953125 C-190.25632874 45.96942138 -186.17191329 49.26862966 -182 52.5 C-176.60247571 56.68067172 -171.4044499 61.04390399 -166.25 65.51953125 C-161.70051528 69.44955488 -157.01337766 73.166462 -152.26098633 76.84667969 C-147.96206858 80.19517079 -143.80787407 83.68483785 -139.6875 87.25 C-138.5262539 88.24764292 -137.3648023 89.2450467 -136.203125 90.2421875 C-134.22213218 91.94302808 -132.25568923 93.65611209 -130.296875 95.3828125 C-129.51828125 96.04023438 -128.7396875 96.69765625 -127.9375 97.375 C-127.28652344 97.93960938 -126.63554687 98.50421875 -125.96484375 99.0859375 C-124.00056436 100.23448732 -124.00056436 100.23448732 -121.703125 99.546875 C-117.98761053 97.42065574 -114.983397 94.73331302 -111.8125 91.875 C-110.46346909 90.68220176 -109.11321007 89.49079103 -107.76171875 88.30078125 C-107.11122559 87.72666504 -106.46073242 87.15254883 -105.79052734 86.56103516 C-102.86721513 84.01240435 -99.83055886 81.61846624 -96.78515625 79.21875 C-93.00832554 76.20999847 -89.28668727 73.13602746 -85.5625 70.0625 C-84.07422256 68.8346308 -82.58594138 67.60676613 -81.09765625 66.37890625 C-80.39012207 65.79512207 -79.68258789 65.21133789 -78.95361328 64.60986328 C-76.47431339 62.56681111 -73.9881283 60.532288 -71.5 58.5 C-66.82330201 54.67879554 -62.16073456 50.84064015 -57.5 47 C-51.98798441 42.45786868 -46.4683902 37.92539199 -40.9375 33.40625 C-37.1188883 30.27823829 -33.30950312 27.13909367 -29.5 24 C-19.7148762 15.93888607 -9.91901655 7.89648389 0 0 Z " fill="#FDFEFF" transform="translate(379,182)"/>
<path d="M0 0 C1.32056578 -0.00445668 1.32056578 -0.00445668 2.66780967 -0.0090034 C5.62951671 -0.01770248 8.5911834 -0.01919967 11.55290222 -0.02069092 C13.67166226 -0.02531822 15.79042146 -0.03034276 17.90917969 -0.03573608 C23.67368356 -0.04887019 29.43817577 -0.05530697 35.20269227 -0.05974674 C38.8023731 -0.06267572 42.40205074 -0.06678019 46.00172997 -0.07125092 C57.25923804 -0.08492825 68.51673881 -0.09459386 79.77425462 -0.09845281 C92.77887696 -0.10293486 105.78339427 -0.12048867 118.78798467 -0.1494534 C128.83391785 -0.17105342 138.87982145 -0.18115618 148.92577761 -0.18249393 C154.92869678 -0.18354312 160.93151724 -0.18947532 166.934412 -0.20731354 C172.58063999 -0.22376522 178.22669477 -0.2259638 183.87293816 -0.21717453 C185.94578642 -0.21640261 188.01864388 -0.22076719 190.09146881 -0.23063278 C192.92048019 -0.24330825 195.74887402 -0.23749934 198.57788086 -0.22705078 C199.39880228 -0.23510719 200.21972371 -0.24316359 201.06552154 -0.25146413 C205.95149939 -0.209238 209.18851059 0.54686562 213.47941589 3.14044189 C210.98658281 6.41753707 208.55684734 9.07579089 205.29191589 11.57794189 C200.47857821 15.33747192 195.75002716 19.18737276 191.04191589 23.07794189 C189.55372367 24.30591437 188.06544389 25.53378076 186.57707214 26.76153564 C185.86953796 27.34531982 185.16200378 27.929104 184.43302917 28.53057861 C181.95372928 30.57363079 179.4675442 32.60815389 176.97941589 34.64044189 C172.3027179 38.46164635 167.64015046 42.29980174 162.97941589 46.14044189 C158.31868133 49.98108205 153.65611389 53.81923744 148.97941589 57.64044189 C144.42905205 61.35909271 139.89034875 65.09171727 135.35441589 68.82794189 C134.63576355 69.41970215 133.91711121 70.0114624 133.17668152 70.62115479 C128.67434716 74.32939939 124.17689458 78.04348181 119.68205261 81.76080322 C117.54098041 83.52715219 115.39374976 85.28573953 113.24504089 87.04278564 C110.99680996 88.88189213 108.78498313 90.74197081 106.58879089 92.64434814 C105.81019714 93.30305908 105.03160339 93.96177002 104.22941589 94.64044189 C103.60550964 95.18700439 102.98160339 95.73356689 102.33879089 96.29669189 C100.47941589 97.14044189 100.47941589 97.14044189 97.99113464 96.51153564 C95.44688354 95.12268317 93.63654686 93.69802604 91.54191589 91.70294189 C87.75948307 88.22736206 83.85256337 85.02768009 79.79191589 81.89044189 C74.90278579 78.10085396 70.14912722 74.19718395 65.47941589 70.14044189 C60.90943955 66.17209723 56.26432095 62.34682334 51.47941589 58.64044189 C46.02056546 54.41004303 40.74749449 50.00499248 35.52507019 45.48687744 C30.25993499 40.93374812 24.88587737 36.52470682 19.47941589 32.14044189 C17.64538335 30.64129689 15.81205608 29.14128867 13.97941589 27.64044189 C11.24251724 25.40045534 8.5049765 23.16129494 5.76457214 20.92559814 C-1.03467541 15.3749929 -7.78653747 9.76977582 -14.52058411 4.14044189 C-10.32395496 -0.45586622 -5.87717345 -0.00615319 0 0 Z " fill="#FEFEFF" transform="translate(156.5205841064453,169.85955810546875)"/>
</svg>
